<?xml version="1.0" standalone="no"?>
<!DOCTYPE svg PUBLIC "-//W3C//DTD SVG 20010904//EN"
 "http://www.w3.org/TR/2001/REC-SVG-20010904/DTD/svg10.dtd">
<svg version="1.0" xmlns="http://www.w3.org/2000/svg"
 width="512.000000pt" height="512.000000pt" viewBox="0 0 512.000000 512.000000"
 preserveAspectRatio="xMidYMid meet">

<g transform="translate(0.000000,512.000000) scale(0.100000,-0.100000)"
fill="#000000" stroke="none">
<path d="M2726 5095 c-259 -74 -542 -376 -758 -808 -34 -67 -62 -124 -64 -126
-2 -2 -68 17 -146 42 -297 96 -435 121 -678 121 -208 1 -259 -9 -389 -71 -89
-43 -182 -131 -228 -219 -113 -213 -75 -510 113 -872 54 -105 88 -161 190
-317 14 -21 9 -26 -88 -107 -850 -707 -726 -1395 272 -1509 52 -6 190 -10 307
-10 l212 0 5 -27 c3 -15 15 -80 26 -144 42 -238 131 -506 217 -652 154 -264
327 -386 549 -386 306 0 618 286 884 811 l69 136 113 -38 c136 -46 308 -91
443 -115 149 -27 413 -25 518 4 221 60 375 213 416 410 16 76 14 220 -5 308
-37 183 -157 449 -298 663 -37 56 -66 104 -64 105 130 92 385 342 470 462 198
277 244 509 144 719 -100 210 -342 344 -726 401 -82 13 -181 18 -347 18 l-233
1 -4 25 c-3 14 -10 54 -16 90 -6 36 -20 109 -32 163 l-21 98 50 52 c61 63 86
105 107 176 66 226 -85 459 -325 501 -52 9 -78 8 -138 -4 l-73 -15 -44 30
c-25 17 -74 44 -111 61 -58 28 -79 32 -167 34 -65 2 -118 -2 -150 -11z m256
-217 c27 -11 47 -24 46 -27 -2 -3 -15 -31 -31 -62 -81 -162 -50 -347 80 -470
71 -67 147 -101 239 -107 l72 -4 11 -57 c20 -91 51 -274 49 -276 -2 -2 -79
-14 -173 -29 -93 -14 -240 -42 -325 -62 -85 -19 -169 -37 -185 -40 -25 -5 -58
10 -190 86 -153 88 -454 240 -475 240 -19 0 -10 23 58 154 123 235 233 388
369 517 163 153 314 198 455 137z m-1586 -782 c112 -24 401 -110 416 -124 4
-4 -22 -92 -57 -195 -36 -104 -81 -248 -101 -321 l-36 -132 -127 -63 c-146
-73 -351 -191 -465 -267 l-80 -53 -34 47 c-105 147 -234 401 -278 547 -23 75
-28 109 -28 210 -1 109 1 125 25 176 47 100 136 164 270 194 98 23 341 13 495
-19z m711 -247 c112 -51 353 -180 353 -188 0 -4 -60 -26 -132 -50 -73 -24
-207 -72 -297 -108 -90 -35 -166 -62 -169 -59 -10 11 138 446 152 446 2 0 44
-18 93 -41z m2121 -174 c283 -43 483 -148 552 -290 37 -76 34 -193 -7 -297
-71 -181 -233 -374 -492 -586 l-64 -53 -26 33 c-14 18 -74 88 -133 154 l-107
122 21 53 c16 44 19 70 16 144 -5 107 -33 175 -104 254 -41 46 -147 111 -180
111 -8 0 -14 36 -18 128 -4 70 -9 153 -12 184 l-6 57 39 4 c74 10 419 -3 521
-18z m-754 -57 c3 -29 8 -107 11 -173 l6 -121 -54 -22 -54 -23 -184 138 c-101
76 -195 145 -209 154 -24 16 -21 17 95 39 173 33 326 58 357 59 25 1 27 -2 32
-51z m-633 -190 c108 -74 240 -170 387 -283 11 -9 10 -22 -8 -75 -32 -94 -25
-221 15 -305 33 -68 103 -144 164 -174 24 -13 41 -28 41 -39 0 -50 -86 -538
-106 -606 -10 -32 -345 -170 -666 -275 -272 -88 -238 -90 -398 20 -142 97
-366 264 -376 281 -3 5 4 32 16 60 46 107 35 250 -27 355 -31 54 -123 138
-168 154 -19 7 -35 19 -35 27 0 55 101 606 113 618 9 9 344 146 461 188 104
38 428 143 447 145 3 1 66 -40 140 -91z m-1285 -380 c-3 -13 -19 -106 -36
-208 -47 -286 -39 -261 -85 -275 -22 -6 -60 -22 -84 -34 l-43 -22 -25 23 c-35
32 -213 239 -213 247 0 14 455 287 484 290 4 1 6 -9 2 -21z m-598 -450 c28
-35 88 -105 135 -157 l84 -94 -14 -39 c-64 -186 28 -401 207 -485 l58 -28 6
-130 c4 -71 9 -155 12 -186 l6 -57 -109 -4 c-59 -3 -176 -1 -258 3 -471 25
-747 173 -772 413 -15 143 89 347 283 555 64 69 291 271 305 271 3 0 28 -28
57 -62z m2911 -50 c67 -73 181 -208 181 -214 0 -13 -325 -210 -459 -279 l-34
-17 6 25 c9 35 54 298 68 394 l11 82 47 11 c25 6 62 20 81 30 19 11 39 19 43
20 5 0 30 -24 56 -52z m378 -485 c189 -292 280 -535 271 -728 -5 -107 -29
-170 -90 -232 -139 -142 -466 -160 -863 -47 -193 55 -267 85 -261 103 46 131
161 485 176 547 l21 80 77 38 c142 70 348 187 468 266 66 43 122 79 125 79 4
1 38 -47 76 -106z m-2368 -336 c75 -57 164 -123 199 -147 34 -23 62 -46 62
-50 0 -13 -476 -97 -487 -86 -6 6 -25 324 -21 338 3 9 79 44 102 47 4 1 70
-45 145 -102z m1315 -276 c-36 -110 -71 -207 -78 -216 -10 -13 -30 -6 -154 55
-79 38 -182 91 -229 117 l-86 46 154 52 c166 57 273 96 384 143 50 21 71 25
73 16 2 -7 -27 -103 -64 -213z m-774 -94 c72 -49 314 -180 457 -249 81 -39
149 -72 151 -74 7 -5 -87 -190 -147 -291 -162 -271 -344 -457 -504 -513 -275
-97 -508 149 -642 679 -26 106 -67 322 -61 328 2 2 50 11 107 19 163 24 354
61 479 93 63 16 117 29 120 30 3 1 21 -10 40 -22z"/>
<path d="M2443 3045 c-191 -53 -321 -205 -348 -406 -16 -121 41 -276 136 -372
82 -82 181 -127 292 -134 149 -10 261 31 363 132 243 240 156 642 -167 767
-71 27 -205 33 -276 13z m234 -213 c248 -127 161 -502 -117 -502 -90 0 -175
45 -220 117 -96 151 -32 336 137 399 51 19 148 12 200 -14z"/>
</g>
</svg>
