<?xml version="1.0" standalone="no"?>
<!DOCTYPE svg PUBLIC "-//W3C//DTD SVG 20010904//EN"
 "http://www.w3.org/TR/2001/REC-SVG-20010904/DTD/svg10.dtd">
<svg version="1.0" xmlns="http://www.w3.org/2000/svg"
 width="512.000000pt" height="512.000000pt" viewBox="0 0 512.000000 512.000000"
 preserveAspectRatio="xMidYMid meet">

<g transform="translate(0.000000,512.000000) scale(0.100000,-0.100000)"
fill="#000000" stroke="none">
<path d="M1965 5102 c-244 -85 -275 -424 -50 -543 l45 -24 0 -518 0 -518 -37
-15 c-438 -177 -764 -471 -967 -871 -195 -384 -245 -826 -140 -1245 52 -210
127 -377 249 -563 281 -426 719 -703 1240 -786 115 -18 418 -16 536 4 387 66
717 235 989 507 775 775 684 2050 -193 2711 -121 91 -274 176 -439 243 l-38
15 0 518 1 518 51 30 c206 119 188 427 -31 529 -45 21 -57 21 -606 23 -511 2
-564 1 -610 -15z m1157 -211 c44 -39 46 -98 5 -139 -27 -26 -31 -27 -167 -32
-136 -5 -140 -6 -167 -33 -38 -38 -38 -96 0 -134 23 -23 37 -28 97 -31 l70 -4
0 -557 c0 -637 -4 -603 87 -636 253 -92 399 -176 573 -329 202 -178 368 -429
454 -686 31 -93 68 -240 61 -240 -2 0 -56 18 -121 39 -274 91 -544 119 -824
86 -232 -27 -401 -79 -655 -197 -93 -44 -223 -98 -287 -119 -291 -96 -607
-113 -908 -47 -96 20 -278 81 -339 112 -32 17 -33 18 -26 69 42 329 212 674
450 912 171 171 401 316 608 385 38 12 80 32 95 45 l27 23 3 571 2 571 65 0
c57 0 68 3 97 29 44 39 46 98 5 139 -27 26 -31 27 -167 32 -136 5 -140 6 -167
33 -49 48 -32 131 32 158 11 4 255 8 542 8 l523 1 32 -29z m466 -2892 c180
-19 357 -67 515 -136 l57 -26 0 -51 c0 -28 -5 -93 -10 -144 -40 -374 -198
-708 -461 -971 -430 -429 -1058 -578 -1635 -386 -543 180 -953 649 -1062 1215
-20 104 -35 240 -27 240 2 0 42 -14 87 -30 252 -93 577 -136 828 -111 248 25
453 85 712 206 90 42 209 92 265 111 240 81 492 110 731 83z"/>
<path d="M2425 3391 c-62 -26 -81 -110 -34 -156 14 -14 41 -28 61 -31 30 -5
41 -1 69 24 28 25 34 37 34 72 0 35 -6 47 -33 71 -33 29 -60 35 -97 20z"/>
<path d="M1965 2783 c-211 -76 -272 -336 -115 -493 61 -61 119 -85 210 -85 91
0 149 24 210 85 61 61 85 119 85 210 0 91 -24 149 -85 210 -80 80 -203 109
-305 73z m157 -212 c27 -24 33 -36 33 -71 0 -35 -6 -47 -34 -72 -28 -25 -39
-29 -69 -24 -124 20 -110 192 15 195 13 1 37 -12 55 -28z"/>
<path d="M2825 2791 c-62 -26 -81 -110 -34 -156 14 -14 41 -28 61 -31 30 -5
41 -1 69 24 28 25 34 37 34 72 0 35 -6 47 -33 71 -33 29 -60 35 -97 20z"/>
<path d="M3515 1448 c-15 -12 -38 -44 -50 -72 -54 -121 -174 -275 -277 -354
-175 -135 -342 -198 -577 -221 -81 -7 -97 -12 -119 -35 -37 -37 -37 -96 1
-133 27 -27 31 -28 130 -26 412 7 814 269 1011 660 45 91 47 133 7 174 -36 36
-86 39 -126 7z"/>
<path d="M2125 841 c-62 -26 -81 -110 -34 -156 14 -14 41 -28 61 -31 30 -5 41
-1 69 24 28 25 34 37 34 72 0 35 -6 47 -33 71 -33 29 -60 35 -97 20z"/>
</g>
</svg>
