<?xml version="1.0" standalone="no"?>
<!DOCTYPE svg PUBLIC "-//W3C//DTD SVG 20010904//EN"
 "http://www.w3.org/TR/2001/REC-SVG-20010904/DTD/svg10.dtd">
<svg version="1.0" xmlns="http://www.w3.org/2000/svg"
 width="512.000000pt" height="512.000000pt" viewBox="0 0 512.000000 512.000000"
 preserveAspectRatio="xMidYMid meet">

<g transform="translate(0.000000,512.000000) scale(0.100000,-0.100000)"
fill="#000000" stroke="none">
<path d="M4076 4839 c-512 -54 -1021 -248 -1471 -562 -149 -103 -261 -194
-440 -358 -30 -27 -33 -28 -355 -58 -359 -33 -420 -46 -532 -112 -79 -47 -171
-136 -216 -211 -18 -31 -127 -275 -242 -544 -170 -396 -210 -497 -210 -534 0
-50 25 -100 63 -125 60 -39 75 -38 396 26 169 33 314 62 324 65 15 5 17 -2 17
-53 0 -34 8 -75 19 -98 l18 -40 -60 -22 c-85 -33 -189 -105 -252 -176 -199
-223 -487 -734 -790 -1402 -70 -155 -77 -175 -73 -221 7 -88 68 -144 157 -144
51 0 311 116 706 315 514 260 836 463 960 608 49 57 99 141 121 203 l18 51 40
-18 c25 -11 64 -19 99 -19 51 0 58 -2 53 -17 -3 -10 -32 -155 -65 -324 -64
-321 -65 -336 -26 -396 9 -13 30 -33 48 -43 67 -41 83 -36 614 191 271 116
521 229 554 250 120 78 206 191 254 332 21 64 31 131 56 404 30 325 31 328 58
358 164 180 255 291 358 440 322 462 512 969 564 1503 13 132 6 497 -11 577
-20 98 -63 132 -191 151 -103 15 -429 17 -563 3z m451 -521 c-6 -238 -21 -355
-73 -568 -127 -514 -409 -1001 -818 -1412 -126 -126 -221 -206 -350 -292 -241
-161 -509 -265 -776 -301 l-105 -14 -338 337 -338 338 16 111 c57 406 261 790
595 1122 259 257 523 447 831 600 262 130 529 217 799 260 165 27 176 27 384
29 l178 2 -5 -212z m-2768 -885 c-98 -149 -190 -342 -248 -519 l-49 -149 -209
-41 c-114 -23 -210 -41 -212 -39 -2 2 61 155 140 341 120 282 150 344 186 385
66 73 129 99 275 114 68 7 137 13 155 14 l32 1 -70 -107z m-3 -1530 c52 -27
120 -96 146 -147 25 -49 35 -172 19 -232 -43 -158 -317 -352 -940 -663 -123
-62 -225 -110 -228 -108 -6 7 232 478 317 627 196 342 319 492 437 536 57 21
196 14 249 -13z m1770 -238 c-12 -119 -19 -157 -41 -200 -50 -103 -86 -125
-459 -284 -185 -80 -338 -142 -340 -140 -2 2 15 98 38 212 l41 209 150 49
c174 57 366 149 515 247 58 38 106 65 108 61 2 -3 -4 -73 -12 -154z"/>
<path d="M3352 3984 c-173 -46 -305 -171 -364 -342 -31 -92 -31 -229 1 -322
127 -366 586 -476 857 -205 208 206 206 527 -4 739 -122 123 -321 176 -490
130z m217 -324 c148 -75 147 -286 -2 -356 -85 -39 -157 -27 -223 40 -76 76
-83 175 -18 262 51 69 165 94 243 54z"/>
<path d="M2670 2873 c-15 -3 -87 -67 -187 -166 -176 -177 -191 -201 -173 -281
19 -83 110 -137 195 -115 33 9 70 40 202 172 152 153 161 165 168 209 10 69
-23 135 -85 166 -43 21 -67 24 -120 15z"/>
</g>
</svg>
