<?xml version="1.0" standalone="no"?>
<!DOCTYPE svg PUBLIC "-//W3C//DTD SVG 20010904//EN"
 "http://www.w3.org/TR/2001/REC-SVG-20010904/DTD/svg10.dtd">
<svg version="1.0" xmlns="http://www.w3.org/2000/svg"
 width="512.000000pt" height="512.000000pt" viewBox="0 0 512.000000 512.000000"
 preserveAspectRatio="xMidYMid meet">

<g transform="translate(0.000000,512.000000) scale(0.100000,-0.100000)"
fill="#000000" stroke="none">
<path d="M3315 5106 c-67 -29 -217 -220 -293 -371 -80 -162 -124 -347 -126
-537 0 -71 -3 -128 -6 -128 -3 1 -16 7 -30 15 -37 21 -638 22 -678 1 -15 -8
-271 -259 -569 -558 -421 -421 -545 -551 -553 -578 -5 -19 -10 -90 -10 -157
l0 -123 -454 0 -453 0 -33 -22 c-54 -37 -75 -73 -75 -128 0 -52 19 -87 69
-124 27 -20 41 -21 487 -24 l459 -3 0 -125 c0 -89 4 -135 15 -162 10 -23 84
-106 203 -225 l187 -187 -712 -713 c-391 -391 -718 -726 -727 -744 -61 -122
75 -258 197 -197 18 9 353 336 744 727 l713 712 187 -187 c119 -119 202 -193
225 -203 27 -11 73 -15 163 -15 l125 0 0 -462 c0 -441 1 -464 20 -503 23 -48
81 -85 131 -85 47 0 108 38 130 80 18 32 19 66 19 502 l0 468 119 0 c65 0 134
3 152 6 28 5 128 100 582 553 302 300 555 558 563 573 21 40 20 641 -1 678 -8
14 -14 27 -15 30 0 3 57 6 128 7 191 2 376 45 537 125 168 85 355 237 376 308
26 87 31 82 -364 478 l-362 362 352 353 c193 193 358 366 367 384 61 122 -75
258 -197 197 -18 -9 -191 -174 -385 -367 l-352 -352 -358 357 c-196 196 -370
362 -385 368 -37 13 -75 12 -112 -4z m1408 -1744 c-52 -42 -207 -112 -308
-138 -135 -36 -335 -39 -465 -6 -368 91 -641 364 -732 732 -32 128 -30 331 4
460 29 109 69 201 122 285 l38 58 684 -684 685 -684 -28 -23z m-1456 -94 l533
-533 0 -216 c0 -185 -2 -218 -16 -230 -13 -11 -114 86 -761 734 -648 647 -745
748 -734 761 12 14 45 16 230 16 l216 0 532 -532z m-64 -1560 l-358 -358 -325
0 -325 0 -157 157 -158 158 184 185 c102 102 189 198 195 213 48 126 -70 244
-196 196 -15 -6 -111 -93 -213 -195 l-185 -184 -158 158 -157 157 0 325 0 325
357 357 358 358 747 -747 748 -748 -357 -357z"/>
</g>
</svg>
